<svg xmlns="http://www.w3.org/2000/svg" width="400" height="204" fill="none"><path fill="url(#a)" fill-rule="evenodd" d="M344.205 204c.522-2.582.795-5.254.795-8 0-24.024-19.477-43.5-43.5-43.5S258 171.976 258 196c0 2.746.236 5.418.688 8h85.517Z" clip-rule="evenodd"/><path fill="#833700" d="m261.877 119.5-2.139 1.294 12.422 20.535 2.139-1.294-12.422-20.535Z"/><path fill="#833700" d="m261.877 119.5-2.139 1.294 12.422 20.535 2.139-1.294-12.422-20.535Z"/><path fill="#833700" d="m259.982 125.321-1.781 1.754 14.035 14.249 1.781-1.754-14.035-14.249Z"/><path fill="#833700" d="m259.982 125.321-1.781 1.754 14.035 14.249 1.781-1.754-14.035-14.249Z"/><path fill="#833700" d="m258.818 131.142-.817 2.363 17.208 5.95.817-2.363-17.208-5.95Z"/><path fill="#833700" d="m258.818 131.142-.817 2.363 17.208 5.95.817-2.363-17.208-5.95ZM343.148 121.5l2.14 1.294-12.422 20.535-2.14-1.294 12.422-20.535Z"/><path fill="#833700" d="m343.148 121.5 2.14 1.294-12.422 20.535-2.14-1.294 12.422-20.535Z"/><path fill="#833700" d="m345.043 127.321 1.781 1.754-14.034 14.249-1.781-1.754 14.034-14.249Z"/><path fill="#833700" d="m345.043 127.321 1.781 1.754-14.034 14.249-1.781-1.754 14.034-14.249Z"/><path fill="#833700" d="m346.207 133.142.817 2.363-17.208 5.95-.817-2.363 17.208-5.95Z"/><path fill="#833700" d="m346.207 133.142.817 2.363-17.208 5.95-.817-2.363 17.208-5.95Z"/><path fill="url(#b)" d="M334 146c0 15.5-9.5 27-32.5 27S271 162.5 269 146c0-17.949 14.551-32.5 32.5-32.5 17.949 0 32.5 14.551 32.5 32.5Z"/><path fill="url(#c)" d="M323 113.5c0 12.15-9.714 22-21.912 22-12.199 0-22.088-9.85-22.088-22 2.254-14.816 9.889-22 22.088-22 12.198 0 20.284 8.98 21.912 22Z"/><path fill="url(#d)" d="m278.5 116.5 44.5-.5 8 15.989-28.748 2.511L272 131.989l6.5-15.489Z"/><path fill="#7EC4F3" d="m284 116.5 7-3 4 3 1 5.938-18 28.062 6-34Z"/><path fill="url(#e)" d="m283.961 116.506 12.039 6-8.783 30.956L270.974 147l12.987-30.494Z"/><path fill="#000" d="M311 105.5c0 1.657-.843 3-2.5 3s-3.5-1.343-3.5-3 .843-3 2.5-3 3.5 1.343 3.5 3Z"/><path fill="#fff" d="M310 104.5c0 .552-.281 1-.833 1-.553 0-1.167-.448-1.167-1s.281-1 .833-1c.553 0 1.167.448 1.167 1Z"/><path fill="#000" d="M289.8 105.902c-.5 2.098-2.143 2.5-3.8 2.5s-2-.843-2-2.5 1.843-3 3.5-3 2.3 1 2.3 3Z"/><path fill="#fff" d="M289 104.5c0 .552-.281 1-.833 1-.553 0-1.167-.448-1.167-1s.281-1 .833-1c.553 0 1.167.448 1.167 1Z"/><path fill="url(#f)" d="m279.627 108.875 18.492-1.072.625 1.294.221 1.23.053 1.238-.183 1.165-.183 1.165-.358.703-.587 1.101-.949.844-17.131-7.668Z"/><rect width="62" height="5" x="271" y="96.5" fill="url(#g)" rx="2"/><path fill="url(#h)" d="m278.5 40 6-3 5.5-2 6-1.5 6-.5 6 .5 6.5 1.5 6 2 5.5 3-4 56.5h-39L278.5 40Z"/><path fill="#000" d="M297 144.5a3 3 0 1 1-6 0c0-1.657 1.843-3 3.5-3s2.5 1.343 2.5 3ZM297 160.5c0 1.657-.843 3-2.5 3s-3.5-1.343-3.5-3 .843-3 2.5-3 3.5 1.343 3.5 3ZM297 186.5c0 1.657-1.843 3-3.5 3s-2.5-1.343-2.5-3 1.843-3 3.5-3 2.5 1.343 2.5 3ZM336.1 121.256l2.74-1.222 25.668 57.534-2.74 1.222z"/><path fill="#000" d="m336.1 121.536-.139-9.828 5.139-5.174 8.157-1.481 6.844 4.482-1.5 3-5.344-3.5-6.657.5-3.499 4-.178 7.911-2.823.09Z"/><defs><linearGradient id="d" x1="281.5" x2="316" y1="130.5" y2="125.5" gradientUnits="userSpaceOnUse"><stop offset=".41" stop-color="#4EA1D9"/><stop offset="1" stop-color="#7EC4F3"/></linearGradient><linearGradient id="e" x1="280.5" x2="294" y1="136" y2="129.5" gradientUnits="userSpaceOnUse"><stop stop-color="#4EA1D9"/><stop offset="1" stop-color="#7EC4F3"/></linearGradient><linearGradient id="f" x1="294.495" x2="293.963" y1="108.881" y2="115.631" gradientUnits="userSpaceOnUse"><stop offset=".28" stop-color="#E1AA2B"/><stop offset="1" stop-color="#856416"/></linearGradient><linearGradient id="g" x1="302" x2="302" y1="96.5" y2="101.5" gradientUnits="userSpaceOnUse"><stop offset=".365" stop-color="#4FA9E7"/><stop offset="1" stop-color="#1F5E89"/></linearGradient><linearGradient id="h" x1="322" x2="281" y1="67" y2="67" gradientUnits="userSpaceOnUse"><stop offset=".605" stop-color="#4FA9E7"/><stop offset="1" stop-color="#257BB5"/></linearGradient><radialGradient id="a" cx="0" cy="0" r="1" gradientTransform="rotate(108.263 86.584 207.798) scale(55.8627)" gradientUnits="userSpaceOnUse"><stop stop-color="#FFF9F9"/><stop offset="1" stop-color="#DCD9D9"/></radialGradient><radialGradient id="b" cx="0" cy="0" r="1" gradientTransform="rotate(153.768 136.25 113.19) scale(38.461)" gradientUnits="userSpaceOnUse"><stop offset=".42" stop-color="#F6F5F5"/><stop offset="1" stop-color="#CACACA"/></radialGradient><radialGradient id="c" cx="0" cy="0" r="1" gradientTransform="rotate(113.601 111.875 154.258) scale(24.0082 24.0732)" gradientUnits="userSpaceOnUse"><stop offset=".15" stop-color="#FFF6F6"/><stop offset="1" stop-color="#D9D7D7"/></radialGradient></defs></svg>