<svg width="400" height="200" fill="none" xmlns="http://www.w3.org/2000/svg"><path d="M267.091 71.383 264 69.606l1.375-.371a1.54 1.54 0 0 0 1.18-1.293 1.537 1.537 0 0 0-.314-1.166 1.542 1.542 0 0 0-1.669-.524l-4.358 1.174L256.025 65l4.189-2.426 4.358 1.174h.402a1.557 1.557 0 1 0 .401-3.09L264 60.363l3.091-1.778a1.552 1.552 0 0 0-.972-2.882 1.556 1.556 0 0 0-.574.193l-3.338 1.947.464-1.715a1.542 1.542 0 0 0-1.691-1.984 1.546 1.546 0 0 0-1.292 1.18l-1.267 4.637-3.941 2.364V57.49l3.199-3.199a1.545 1.545 0 0 0-.503-2.517 1.544 1.544 0 0 0-1.692.338l-1.004 1.005v-3.57a1.545 1.545 0 0 0-3.091 0v3.817l-1.252-1.252a1.544 1.544 0 0 0-2.194 0 1.546 1.546 0 0 0 0 2.179l3.446 3.446v4.637l-3.972-2.35-1.267-4.636a1.533 1.533 0 0 0-.712-.975 1.542 1.542 0 0 0-1.746.11 1.546 1.546 0 0 0-.525 1.669l.495 1.653-3.338-1.916a1.556 1.556 0 0 0-1.72.116 1.562 1.562 0 0 0-.591 1.03 1.556 1.556 0 0 0 .765 1.543l3.091 1.747-1.298.402a1.558 1.558 0 1 0 .402 3.09h.401l4.359-1.174L249.844 65l-4.189 2.426-4.358-1.174a1.544 1.544 0 0 0-2.057 1.73 1.535 1.535 0 0 0 .719 1.04c.187.114.395.186.612.212l1.375.372-3.091 1.777a1.552 1.552 0 0 0 1.546 2.689l3.261-1.916-.464 1.715c-.061.198-.082.406-.061.612a1.532 1.532 0 0 0 1.127 1.335c.134.015.269.015.402 0a1.544 1.544 0 0 0 1.546-1.144l1.267-4.636 3.91-2.364v4.837l-3.199 3.199a1.545 1.545 0 0 0 0 2.18 1.548 1.548 0 0 0 1.097.463 1.54 1.54 0 0 0 1.097-.464l1.005-1.004v3.57a1.545 1.545 0 0 0 3.091 0v-3.818l1.252 1.252a1.533 1.533 0 0 0 1.097.457 1.544 1.544 0 0 0 1.097-.457 1.546 1.546 0 0 0 0-2.179l-3.446-3.446v-4.637l3.972 2.303 1.267 4.636a1.547 1.547 0 0 0 1.545 1.144c.134.015.269.015.402 0a1.54 1.54 0 0 0 1.139-1.296 1.562 1.562 0 0 0-.041-.605l-.557-1.653 3.307 1.916a1.556 1.556 0 0 0 1.72-.116 1.562 1.562 0 0 0 .591-1.03 1.556 1.556 0 0 0-.765-1.543h.031Z" fill="url(#a)"/><path d="m366.114 55.617-3.518-2.023 1.566-.422a1.76 1.76 0 1 0-.915-3.396l-4.961 1.337-4.768-2.762 4.768-2.762 4.961 1.337h.457a1.774 1.774 0 0 0 .458-3.518l-1.566-.334 3.518-2.023a1.76 1.76 0 0 0 .871-1.758 1.753 1.753 0 0 0-1.29-1.477 1.763 1.763 0 0 0-1.34.174l-3.8 2.216.528-1.953a1.771 1.771 0 0 0-.142-1.366 1.768 1.768 0 0 0-1.082-.848 1.76 1.76 0 0 0-2.171 1.3l-1.443 5.277-4.486 2.692V39.8l3.642-3.641a1.761 1.761 0 0 0-1.926-2.866c-.214.09-.409.22-.572.386l-1.144 1.143v-4.064a1.758 1.758 0 1 0-3.518 0v4.345l-1.425-1.425a1.76 1.76 0 1 0-2.498 2.481l3.923 3.923v5.278l-4.521-2.674-1.443-5.278a1.753 1.753 0 0 0-.81-1.11 1.754 1.754 0 0 0-1.988.124 1.755 1.755 0 0 0-.597 1.9l.563 1.883-3.8-2.181a1.766 1.766 0 0 0-1.759 3.06l3.518 1.989-1.478.457a1.775 1.775 0 0 0 .458 3.519h.457l4.961-1.337 4.68 2.638-4.768 2.762-4.961-1.337a1.76 1.76 0 1 0-.827 3.395l1.566.423-3.518 2.023a1.765 1.765 0 1 0 1.759 3.06l3.712-2.18-.528 1.952a1.748 1.748 0 0 0 .137 1.366 1.769 1.769 0 0 0 1.077.85c.152.018.305.018.457 0a1.761 1.761 0 0 0 1.759-1.301l1.443-5.278 4.451-2.691V56.9l-3.642 3.642a1.761 1.761 0 0 0 0 2.48 1.756 1.756 0 0 0 1.249.528 1.762 1.762 0 0 0 1.249-.528l1.144-1.143v4.063a1.759 1.759 0 1 0 3.518 0v-4.345l1.425 1.425a1.759 1.759 0 0 0 2.498 0 1.758 1.758 0 0 0 0-2.48l-3.923-3.923v-5.278l4.521 2.621 1.443 5.278a1.76 1.76 0 0 0 1.759 1.302c.152.017.306.017.458 0a1.756 1.756 0 0 0 1.296-1.476c.03-.23.014-.464-.047-.688l-.634-1.883 3.765 2.182a1.766 1.766 0 0 0 2.278-2.608 1.773 1.773 0 0 0-.519-.453h.035Z" fill="url(#b)"/><defs><linearGradient id="a" x1="252.934" y1="48" x2="252.934" y2="82" gradientUnits="userSpaceOnUse"><stop stop-color="#AEFAFF"/><stop offset="1" stop-color="#fff"/></linearGradient><linearGradient id="b" x1="350" y1="29" x2="350" y2="67.703" gradientUnits="userSpaceOnUse"><stop stop-color="#AEFAFF"/><stop offset="1" stop-color="#fff"/></linearGradient></defs></svg>