<svg xmlns="http://www.w3.org/2000/svg" width="400" height="200" fill="none"><path fill="url(#a)" d="M261.012 92c-.291 0-.579-.075-.837-.217L251 86.725l-9.175 5.058a1.728 1.728 0 0 1-1.895-.144 1.88 1.88 0 0 1-.61-.815 1.966 1.966 0 0 1-.107-1.03l1.753-10.713-7.423-7.586a1.92 1.92 0 0 1-.491-.899c-.08-.342-.068-.7.036-1.036.104-.335.295-.632.552-.86a1.76 1.76 0 0 1 .901-.425l10.258-1.563 4.586-9.746c.166-.294.402-.538.685-.707a1.806 1.806 0 0 1 1.859 0c.284.169.52.413.686.707l4.586 9.746 10.258 1.563c.332.051.645.198.901.425.257.227.448.525.552.86.104.335.116.694.036 1.036a1.92 1.92 0 0 1-.491.9l-7.423 7.585 1.753 10.712c.044.271.031.55-.037.814a1.923 1.923 0 0 1-.361.722c-.169.21-.38.38-.618.495a1.729 1.729 0 0 1-.759.176Z"/><path fill="url(#b)" d="M366.125 62c-.324 0-.644-.083-.931-.24L355 56.14l-10.194 5.62a1.925 1.925 0 0 1-2.107-.16 2.095 2.095 0 0 1-.677-.907 2.199 2.199 0 0 1-.119-1.145l1.948-11.903-8.247-8.428a2.131 2.131 0 0 1-.546-1 2.203 2.203 0 0 1 .04-1.15c.115-.372.327-.703.613-.955a1.957 1.957 0 0 1 1.001-.473l11.397-1.736 5.097-10.83c.184-.326.447-.597.761-.786A2.012 2.012 0 0 1 355 22c.362 0 .718.099 1.033.287.314.189.577.46.761.787l5.097 10.828 11.397 1.737c.369.056.716.22 1.001.472.286.253.498.584.613.956.115.372.129.77.04 1.15-.09.38-.279.727-.546 1l-8.247 8.428 1.948 11.903c.049.301.035.61-.042.905a2.125 2.125 0 0 1-.401.802 2.018 2.018 0 0 1-.686.55 1.922 1.922 0 0 1-.843.195Z"/><defs><radialGradient id="a" cx="0" cy="0" r="1" gradientTransform="matrix(0 18 -18 0 251 74)" gradientUnits="userSpaceOnUse"><stop offset=".125" stop-color="#fff"/><stop offset="1" stop-color="#BBF7FF"/></radialGradient><radialGradient id="b" cx="0" cy="0" r="1" gradientTransform="matrix(0 20 -20 0 355 42)" gradientUnits="userSpaceOnUse"><stop offset=".125" stop-color="#fff"/><stop offset="1" stop-color="#BBF7FF"/></radialGradient></defs></svg>